<svg xmlns="http://www.w3.org/2000/svg" enable-background="new 0 0 24 24" height="24" width="24" fill="#000000" style=""><rect id="backgroundrect" width="100%" height="100%" x="0" y="0" fill="none" stroke="none"/><g class="currentLayer" style=""><title>Layer 1</title><g id="svg_1" class=""><rect fill="none" height="24" width="24" id="svg_2"/></g><path fill="#ffffff" fill-opacity="1" stroke="none" stroke-opacity="1" stroke-width="1" stroke-dasharray="none" stroke-linejoin="miter" stroke-linecap="butt" stroke-dashoffset="" fill-rule="nonzero" opacity="1" marker-start="" marker-mid="" marker-end="" d="M2.8461514717154657,11.769232342273552 C2.8461514717154657,6.446233578335257 7.080327877779048,2.134617984226084 12.307694663573752,2.134617984226084 C17.535061449368452,2.134617984226084 21.769227030350788,6.446233578335257 21.769227030350788,11.769232342273552 C21.769227030350788,17.092219935644472 17.535061449368452,21.40384670032102 12.307694663573752,21.40384670032102 C7.080327877779048,21.40384670032102 2.8461514717154657,17.092219935644472 2.8461514717154657,11.769232342273552 z" id="svg_5" class=""/><g id="svg_3" class=""><path d="M12,2 C6.48,2 2.0000000000000004,6.48 2.0000000000000004,12 s4.48,10 10,10 s10,-4.48 10,-10 S17.52,2 12,2 zM12,20 c-4.41,0 -8,-3.59 -8,-8 s3.59,-8 8,-8 s8,3.59 8,8 S16.41,20 12,20 zM9.5,16.5 l7,-4.5 l-7,-4.5 V16.5 z" id="svg_4"/></g><path fill="none" stroke="#ffffff" stroke-opacity="1" stroke-width="3" stroke-dasharray="none" stroke-linejoin="miter" stroke-linecap="butt" stroke-dashoffset="" fill-rule="nonzero" opacity="1" marker-start="" marker-mid="" marker-end="" d="M3.134615119983372,12.009616040718022 C3.134615119983372,7.085051798164377 7.101997151372374,3.096154761695919 11.999999659260025,3.096154761695919 C16.898002167147677,3.096154761695919 20.86538419853668,7.085051798164377 20.86538419853668,12.009616040718022 C20.86538419853668,16.934180283271672 16.898002167147677,20.92307731974013 11.999999659260025,20.92307731974013 C7.101997151372374,20.92307731974013 3.134615119983372,16.934180283271672 3.134615119983372,12.009616040718022 z" id="svg_6" class=""/></g></svg>